<svg width="256" height="256" viewBox="0 0 256 256" xmlns="http://www.w3.org/2000/svg">
  <!-- Vacuum Tube Envelope -->
  <path d="M128,20 C80,20 60,60 60,110 L60,180 C60,200 80,220 128,220 C176,220 196,200 196,180 L196,110 C196,60 176,20 128,20 Z" fill="#e0e0e0" stroke="#333" stroke-width="8" opacity="0.8"/>
  <path d="M80,180 L176,180 L176,190 C176,200 160,210 128,210 C96,210 80,200 80,190 Z" fill="#333"/>
  <!-- Glowing Filaments -->
  <line x1="100" y1="60" x2="100" y2="160" stroke="#ff5722" stroke-width="4" stroke-linecap="round" opacity="0.6"/>
  <line x1="156" y1="60" x2="156" y2="160" stroke="#ff5722" stroke-width="4" stroke-linecap="round" opacity="0.6"/>
  <!-- YouTube Play Button Inside -->
  <rect x="88" y="90" width="80" height="56" rx="12" fill="#ff0000"/>
  <path d="M115,103 L145,118 L115,133 Z" fill="white"/>
  <!-- Base Pins -->
  <rect x="90" y="220" width="8" height="16" fill="#333"/>
  <rect x="110" y="224" width="8" height="16" fill="#333"/>
  <rect x="138" y="224" width="8" height="16" fill="#333"/>
  <rect x="158" y="220" width="8" height="16" fill="#333"/>
</svg>
